<svg width="34" height="34" viewBox="0 0 34 34" fill="none" xmlns="http://www.w3.org/2000/svg">
<path d="M17.0357 5.73302C17.7994 5.73302 18.4184 6.35207 18.4184 7.11571V15.4118H26.7145C27.4782 15.4118 28.0972 16.0309 28.0972 16.7945C28.0972 17.5582 27.4782 18.1772 26.7145 18.1772H18.4184V26.4733C18.4184 27.237 17.7994 27.856 17.0357 27.856C16.2721 27.856 15.653 27.237 15.653 26.4733V18.1772H7.3569C6.59326 18.1772 5.97421 17.5582 5.97421 16.7945C5.97421 16.0309 6.59326 15.4118 7.3569 15.4118H15.653V7.11571C15.653 6.35207 16.2721 5.73302 17.0357 5.73302Z" fill="#E7E7E7"/>
</svg>
